<svg width="196" height="80" viewBox="0 0 196 80" fill="none" xmlns="http://www.w3.org/2000/svg">
<g id="Sweept Scapes">
<path id="Union" fill-rule="evenodd" clip-rule="evenodd" d="M40.75 60C51.7957 60 60.75 41.0457 60.75 30C60.75 18.9543 51.7957 10 40.75 10C29.7043 10 20.75 18.9543 20.75 30C20.75 41.0457 29.7043 60 40.75 60ZM33.25 65C31.8693 65 30.75 66.1193 30.75 67.5C30.75 68.8807 31.8693 70 33.25 70H48.25C49.6307 70 50.75 68.8807 50.75 67.5C50.75 66.1193 49.6307 65 48.25 65H33.25Z" fill="#9747FF"/>
<g id="Sweet Scapes">
<path d="M96.6124 31.3867C96.6124 35.04 93.6799 37.6 88.8812 37.6C84.0558 37.6 81.0433 35.0133 80.75 30.96H84.8556C84.9622 33.0667 86.3218 34.4267 88.8012 34.4267C90.854 34.4267 92.3202 33.52 92.3202 31.9733C92.3202 30.7733 91.3872 30.0533 89.7609 29.7333L86.6151 29.12C83.7092 28.56 81.4698 26.9867 81.4698 23.8133C81.4698 20.4 84.4823 17.9467 88.6146 17.9467C92.9068 17.9467 96.0526 20.4533 96.3192 24.4533H92.2136C92.0803 22.4533 90.694 21.0933 88.6679 21.0933C86.6951 21.0933 85.5754 22.2133 85.5754 23.5467C85.5754 24.8533 86.7751 25.4133 88.1614 25.68L91.4405 26.3467C94.7996 27.0133 96.6124 28.56 96.6124 31.3867Z" fill="#242424"/>
<path d="M111.239 37.3333L108.546 28.08L105.88 37.3333H102.174L98.1222 23.0933H101.721L104.147 32.1067L106.76 23.0933H110.412L112.945 32.1067L115.344 23.0933H118.997L114.918 37.3333H111.239Z" fill="#242424"/>
<path d="M127.012 37.5733C122.746 37.5733 119.894 34.6133 119.894 30.16C119.894 25.92 122.853 22.8267 126.959 22.8267C131.464 22.8267 134.45 26.48 133.784 31.12H123.68C123.92 33.44 125.039 34.72 126.932 34.72C128.558 34.72 129.651 33.92 130.078 32.5067H133.757C132.957 35.7333 130.478 37.5733 127.012 37.5733ZM126.879 25.5467C125.146 25.5467 124.053 26.6667 123.733 28.7733H129.865C129.758 26.8 128.638 25.5467 126.879 25.5467Z" fill="#242424"/>
<path d="M142.524 37.5733C138.258 37.5733 135.405 34.6133 135.405 30.16C135.405 25.92 138.365 22.8267 142.47 22.8267C146.976 22.8267 149.962 26.48 149.295 31.12H139.191C139.431 33.44 140.551 34.72 142.444 34.72C144.07 34.72 145.163 33.92 145.589 32.5067H149.268C148.469 35.7333 145.989 37.5733 142.524 37.5733ZM142.39 25.5467C140.657 25.5467 139.564 26.6667 139.244 28.7733H145.376C145.269 26.8 144.15 25.5467 142.39 25.5467Z" fill="#242424"/>
<path d="M160.857 33.7333V36.96C159.951 37.4133 159.098 37.6 158.005 37.6C155.072 37.6 153.233 35.92 153.233 32.72V26.2667H150.353V23.0933H153.233V18.88H156.912V23.0933H160.99V26.2667H156.912V31.8667C156.912 33.52 157.658 34.1867 158.991 34.1867C159.684 34.1867 160.324 34.0267 160.857 33.7333Z" fill="#242424"/>
<path d="M96.6124 58.0533C96.6124 61.7067 93.6799 64.2667 88.8812 64.2667C84.0558 64.2667 81.0433 61.68 80.75 57.6267H84.8556C84.9622 59.7333 86.3218 61.0933 88.8012 61.0933C90.854 61.0933 92.3202 60.1867 92.3202 58.64C92.3202 57.44 91.3872 56.72 89.7609 56.4L86.6151 55.7867C83.7092 55.2267 81.4698 53.6533 81.4698 50.48C81.4698 47.0667 84.4823 44.6133 88.6146 44.6133C92.9068 44.6133 96.0526 47.12 96.3192 51.12H92.2136C92.0803 49.12 90.694 47.76 88.6679 47.76C86.6951 47.76 85.5754 48.88 85.5754 50.2133C85.5754 51.52 86.7751 52.08 88.1614 52.3467L91.4405 53.0133C94.7996 53.68 96.6124 55.2267 96.6124 58.0533Z" fill="#242424"/>
<path d="M105.612 64.2667C101.507 64.2667 98.6808 61.2267 98.6808 56.88C98.6808 52.6133 101.613 49.4933 105.612 49.4933C109.318 49.4933 112.064 52 112.517 55.84H108.625C108.438 53.9467 107.292 52.7733 105.612 52.7733C103.693 52.7733 102.466 54.3467 102.466 56.88C102.466 59.44 103.666 60.9867 105.612 60.9867C107.319 60.9867 108.412 59.8667 108.625 57.92H112.517C112.091 61.84 109.425 64.2667 105.612 64.2667Z" fill="#242424"/>
<path d="M123.707 64V62.24C122.774 63.5733 121.361 64.2667 119.415 64.2667C116.456 64.2667 114.483 62.5333 114.483 59.8667C114.483 57.0933 116.722 55.6 120.881 55.6C121.681 55.6 122.374 55.6533 123.254 55.76V54.9067C123.254 53.3067 122.348 52.3733 120.801 52.3733C119.202 52.3733 118.242 53.3067 118.109 54.9067H114.776C114.99 51.6267 117.362 49.4933 120.801 49.4933C124.534 49.4933 126.72 51.5467 126.72 55.04V64H123.707ZM117.975 59.76C117.975 60.96 118.829 61.7067 120.215 61.7067C122.108 61.7067 123.254 60.6667 123.254 59.0133V58C122.374 57.8667 121.761 57.8133 121.121 57.8133C119.015 57.8133 117.975 58.48 117.975 59.76Z" fill="#242424"/>
<path d="M144.456 56.88C144.456 61.0933 141.977 64.2667 138.138 64.2667C136.458 64.2667 135.018 63.5467 133.952 62.16V69.1467H130.246V49.76H133.659V51.84C134.752 50.32 136.325 49.4933 138.138 49.4933C141.977 49.4933 144.456 52.6933 144.456 56.88ZM140.644 56.88C140.644 54.2133 139.124 52.7733 137.311 52.7733C135.498 52.7733 133.979 54.1867 133.979 56.88C133.979 59.5733 135.498 60.96 137.311 60.96C139.124 60.96 140.644 59.6 140.644 56.88Z" fill="#242424"/>
<path d="M153.349 64.24C149.083 64.24 146.231 61.28 146.231 56.8267C146.231 52.5867 149.19 49.4933 153.295 49.4933C157.801 49.4933 160.787 53.1467 160.12 57.7867H150.016C150.256 60.1067 151.376 61.3867 153.269 61.3867C154.895 61.3867 155.988 60.5867 156.415 59.1733H160.094C159.294 62.4 156.814 64.24 153.349 64.24ZM153.215 52.2133C151.483 52.2133 150.39 53.3333 150.07 55.44H156.201C156.095 53.4667 154.975 52.2133 153.215 52.2133Z" fill="#242424"/>
<path d="M174.959 59.44C174.959 62.4267 172.693 64.2667 168.641 64.2667C164.588 64.2667 162.322 62.32 162.029 59.1467H165.575C165.602 60.6133 166.855 61.5467 168.694 61.5467C170.134 61.5467 171.227 61.0933 171.227 60.08C171.227 59.1733 170.64 58.8 169.281 58.5333L166.721 58.0533C164.162 57.6 162.616 56.1867 162.616 53.9733C162.616 51.3333 164.882 49.4933 168.427 49.4933C172 49.4933 174.452 51.3867 174.719 54.4533H171.173C171.04 53.0667 170 52.2133 168.427 52.2133C167.068 52.2133 166.161 52.72 166.161 53.6267C166.161 54.48 166.748 54.8267 168.028 55.0667L170.773 55.5733C173.546 56.1067 174.959 57.3867 174.959 59.44Z" fill="#242424"/>
</g>
</g>
</svg>
