<svg width="20" height="20" viewBox="0 0 20 20" fill="none" xmlns="http://www.w3.org/2000/svg">
<path d="M13.486 13.6248C14.1434 13.6248 14.7012 13.854 15.1596 14.3123C15.6179 14.7707 15.8471 15.3285 15.8471 15.986C15.8471 16.6434 15.6179 17.2012 15.1596 17.6596C14.7012 18.1179 14.1434 18.3471 13.486 18.3471C12.9767 18.3471 12.5172 18.1966 12.1075 17.8957C11.6978 17.5947 11.4165 17.1989 11.2637 16.7082H5.43039L4.58318 18.0137C4.47669 18.1804 4.33201 18.2857 4.14914 18.3297C3.96628 18.3737 3.79614 18.3424 3.63874 18.2359C3.47207 18.1202 3.36444 17.9709 3.31582 17.788C3.26721 17.6052 3.29614 17.4304 3.40262 17.2637L7.02764 11.7498C5.99986 11.3285 5.16421 10.6746 4.52068 9.78803C3.87716 8.90146 3.51837 7.8841 3.44428 6.73594H14.9165C14.8424 7.8841 14.4767 8.89914 13.8193 9.78109C13.1619 10.663 12.3332 11.3147 11.3332 11.7359L12.2985 13.236C12.0716 13.3471 11.8667 13.4674 11.6839 13.5971C11.501 13.7267 11.3355 13.8841 11.1874 14.0693L9.92345 12.1109C9.83087 12.1387 9.71744 12.1526 9.58318 12.1526H8.79151C8.65725 12.1526 8.53919 12.1387 8.43735 12.1109L6.34705 15.3193H11.2637C11.4165 14.8193 11.6955 14.4119 12.1006 14.0971C12.5056 13.7822 12.9674 13.6248 13.486 13.6248ZM13.486 16.9582C13.7591 16.9582 13.9894 16.8644 14.1769 16.6769C14.3644 16.4894 14.4582 16.2591 14.4582 15.986C14.4582 15.7128 14.3644 15.4825 14.1769 15.295C13.9894 15.1075 13.7591 15.0137 13.486 15.0137C13.2128 15.0137 12.9825 15.1075 12.795 15.295C12.6075 15.4825 12.5137 15.7128 12.5137 15.986C12.5137 16.2591 12.6075 16.4894 12.795 16.6769C12.9825 16.8644 13.2128 16.9582 13.486 16.9582ZM9.16651 10.7637C10.0461 10.7637 10.8482 10.5253 11.5728 10.0484C12.2973 9.5716 12.8378 8.93039 13.1943 8.12484H5.16651C5.5091 8.93039 6.0415 9.5716 6.76372 10.0484C7.48596 10.5253 8.28689 10.7637 9.16651 10.7637ZM7.40264 5.9304C7.47208 5.53687 7.46167 5.19659 7.37139 4.90957C7.28111 4.62252 7.08088 4.2753 6.7707 3.8679C6.47439 3.47901 6.28342 3.126 6.19778 2.80886C6.11213 2.49173 6.10403 2.11095 6.17347 1.6665H6.86791C6.81698 2.10632 6.83434 2.46165 6.91999 2.73248C7.00564 3.00332 7.1943 3.32855 7.48597 3.70817C7.76837 4.0878 7.95587 4.4408 8.04847 4.76719C8.14105 5.09358 8.15725 5.48132 8.09707 5.9304H7.40264ZM9.16651 5.9304C9.21744 5.4628 9.20124 5.09243 9.11791 4.81928C9.03457 4.54614 8.84707 4.22901 8.55541 3.8679C8.25448 3.4929 8.05887 3.14452 7.9686 2.82275C7.87832 2.50099 7.8679 2.11557 7.93735 1.6665H8.63178C8.56234 2.0415 8.57044 2.37137 8.6561 2.65609C8.74175 2.94081 8.93967 3.2915 9.24985 3.70817C9.52762 4.07391 9.71165 4.42229 9.80193 4.75332C9.89221 5.08433 9.91188 5.47669 9.86095 5.9304H9.16651ZM10.9165 5.9304C10.9767 5.47207 10.9651 5.10401 10.8818 4.82623C10.7984 4.54846 10.6109 4.22901 10.3193 3.8679C10.0091 3.48364 9.80887 3.13062 9.7186 2.80886C9.62832 2.48711 9.6179 2.10632 9.68735 1.6665H10.3818C10.3123 2.0415 10.3228 2.37137 10.413 2.65609C10.5033 2.94081 10.7035 3.2915 11.0137 3.70817C11.2915 4.06466 11.4755 4.40841 11.5658 4.73942C11.6561 5.07043 11.6711 5.46743 11.611 5.9304H10.9165Z" fill="#141414"/>
</svg>
