<svg width="20" height="20" viewBox="0 0 20 20" fill="none" xmlns="http://www.w3.org/2000/svg">
<path d="M4.58398 18.3332C4.25065 18.3332 3.95898 18.2082 3.70898 17.9582C3.45898 17.7082 3.33398 17.4165 3.33398 17.0832V6.24984C3.33398 5.9165 3.45898 5.62484 3.70898 5.37484C3.95898 5.12484 4.25065 4.99984 4.58398 4.99984H6.87565V4.7915C6.87565 3.9165 7.17773 3.17692 7.7819 2.57275C8.38607 1.96859 9.12565 1.6665 10.0007 1.6665C10.8757 1.6665 11.6152 1.96859 12.2194 2.57275C12.8236 3.17692 13.1257 3.9165 13.1257 4.7915V4.99984H15.4173C15.7507 4.99984 16.0423 5.12484 16.2923 5.37484C16.5423 5.62484 16.6673 5.9165 16.6673 6.24984V17.0832C16.6673 17.4165 16.5423 17.7082 16.2923 17.9582C16.0423 18.2082 15.7507 18.3332 15.4173 18.3332H4.58398ZM4.58398 17.0832H15.4173V6.24984H13.1257V8.12484C13.1257 8.30192 13.0654 8.45036 12.9449 8.57015C12.8244 8.68994 12.6751 8.74984 12.497 8.74984C12.3189 8.74984 12.1708 8.68994 12.0527 8.57015C11.9347 8.45036 11.8757 8.30192 11.8757 8.12484V6.24984H8.12565V8.12484C8.12565 8.30192 8.06541 8.45036 7.94492 8.57015C7.82442 8.68994 7.67512 8.74984 7.497 8.74984C7.31888 8.74984 7.17079 8.68994 7.05273 8.57015C6.93468 8.45036 6.87565 8.30192 6.87565 8.12484V6.24984H4.58398V17.0832ZM8.12565 4.99984H11.8757V4.7915C11.8757 4.26373 11.6951 3.81928 11.334 3.45817C10.9729 3.09706 10.5284 2.9165 10.0007 2.9165C9.47287 2.9165 9.02843 3.09706 8.66732 3.45817C8.30621 3.81928 8.12565 4.26373 8.12565 4.7915V4.99984Z" fill="#141414"/>
</svg>
