<svg width="20" height="20" viewBox="0 0 20 20" fill="none" xmlns="http://www.w3.org/2000/svg">
<path d="M2.91602 17.9168V16.6668H4.44647V13.8799C3.98172 13.7453 3.61046 13.4929 3.33268 13.1227C3.0549 12.7526 2.91602 12.326 2.91602 11.8431V5.62518H7.22687V11.8431C7.22687 12.3153 7.08665 12.7392 6.8062 13.1147C6.52576 13.4903 6.15583 13.7453 5.69643 13.8799V16.6668H7.22687V17.9168H2.91602ZM4.16599 9.55948H5.97691V6.87516H4.16599V9.55948ZM5.07145 12.7486C5.32359 12.7486 5.53754 12.6607 5.71329 12.4849C5.88904 12.3092 5.97691 12.0952 5.97691 11.8431V10.8094H4.16599V11.8431C4.16599 12.0952 4.25387 12.3092 4.42962 12.4849C4.60537 12.6607 4.81931 12.7486 5.07145 12.7486ZM10.8006 17.9168C10.4569 17.9168 10.1626 17.7944 9.91781 17.5496C9.67303 17.3048 9.55064 17.0105 9.55064 16.6668V8.65237C9.55064 8.38248 9.63077 8.14114 9.79102 7.92833C9.95127 7.71554 10.1553 7.56267 10.4032 7.46973L11.1948 7.17004C11.4748 7.06854 11.6901 6.93045 11.8407 6.75577C11.9913 6.58109 12.0667 6.32173 12.0667 5.9777V2.82214C12.0667 2.61177 12.1373 2.43607 12.2786 2.29504C12.4199 2.15401 12.595 2.0835 12.8038 2.0835H14.6628C14.8716 2.0835 15.0467 2.15414 15.188 2.29543C15.3293 2.43673 15.3999 2.61181 15.3999 2.82068V5.9777C15.3999 6.32173 15.4766 6.58109 15.6299 6.75577C15.7832 6.93045 15.9998 7.06854 16.2798 7.17004L17.0795 7.46973C17.3273 7.56309 17.5287 7.71611 17.6836 7.92879C17.8385 8.14146 17.916 8.38265 17.916 8.65237V16.6668C17.916 17.0105 17.7936 17.3048 17.5488 17.5496C17.304 17.7944 17.0097 17.9168 16.666 17.9168H10.8006ZM13.3166 4.20687H14.15V3.33348H13.3166V4.20687ZM10.8006 10.2486H16.666V8.65237L15.8663 8.35271C15.3385 8.15826 14.9205 7.87007 14.6123 7.48812C14.3041 7.10618 14.15 6.61125 14.15 6.00335V5.45685H13.3166V6.00335C13.3166 6.61125 13.1625 7.10618 12.8543 7.48812C12.5461 7.87007 12.1281 8.15826 11.6003 8.35271L10.8006 8.65237V10.2486ZM10.8006 16.6668H16.666V14.7117H10.8006V16.6668ZM10.8006 13.4617H16.666V11.4985H10.8006V13.4617Z" fill="black"/>
</svg>
