<svg width="20" height="20" viewBox="0 0 20 20" fill="none" xmlns="http://www.w3.org/2000/svg">
<path d="M9.37435 7.25621V6.5815C8.82734 6.44368 8.37809 6.15273 8.0266 5.70865C7.6751 5.26455 7.49935 4.75049 7.49935 4.16646C7.49935 3.4731 7.74267 2.8831 8.22931 2.39646C8.71596 1.90982 9.30597 1.6665 9.99933 1.6665C10.6927 1.6665 11.2827 1.90982 11.7693 2.39646C12.256 2.8831 12.4993 3.4731 12.4993 4.16646C12.4993 4.75049 12.3236 5.26455 11.9721 5.70865C11.6206 6.15273 11.1713 6.44368 10.6243 6.5815V7.25621L16.3294 10.5383C16.5679 10.6759 16.7531 10.8605 16.8849 11.092C17.0167 11.3236 17.0826 11.577 17.0826 11.8524V13.1472C17.0826 13.4225 17.0167 13.676 16.8849 13.9075C16.7531 14.139 16.5679 14.3236 16.3294 14.4613L10.7525 17.6712C10.5136 17.808 10.2621 17.8763 9.99802 17.8763C9.73393 17.8763 9.4833 17.808 9.24612 17.6712L3.66922 14.4613C3.43071 14.3236 3.24555 14.139 3.11374 13.9075C2.98193 13.676 2.91602 13.4225 2.91602 13.1472V11.8524C2.91602 11.577 2.98193 11.3236 3.11374 11.092C3.24555 10.8605 3.43071 10.6759 3.66922 10.5383L9.37435 7.25621ZM9.24612 14.8507L4.16599 11.9277V13.1472C4.16599 13.1899 4.17668 13.2313 4.19806 13.2714C4.21942 13.3115 4.25147 13.3449 4.2942 13.3716L9.87112 16.5943C9.91386 16.621 9.95659 16.6344 9.99933 16.6344C10.0421 16.6344 10.0848 16.621 10.1275 16.5943L15.7045 13.3716C15.7472 13.3449 15.7792 13.3115 15.8006 13.2714C15.822 13.2313 15.8327 13.1899 15.8327 13.1472V11.9277L10.7525 14.8507C10.5136 14.9875 10.2621 15.0559 9.99802 15.0559C9.73393 15.0559 9.4833 14.9875 9.24612 14.8507ZM9.37435 11.4581V8.69207L5.21724 11.0895L9.87112 13.7738C9.91386 13.8006 9.95659 13.8139 9.99933 13.8139C10.0421 13.8139 10.0848 13.8006 10.1275 13.7738L14.7734 11.0895L10.6243 8.69207V11.4581H9.37435ZM9.99933 5.41646C10.3466 5.41646 10.6417 5.29493 10.8847 5.05188C11.1278 4.80882 11.2493 4.51368 11.2493 4.16646C11.2493 3.81924 11.1278 3.5241 10.8847 3.28105C10.6417 3.03799 10.3466 2.91646 9.99933 2.91646C9.65211 2.91646 9.35697 3.03799 9.11391 3.28105C8.87086 3.5241 8.74933 3.81924 8.74933 4.16646C8.74933 4.51368 8.87086 4.80882 9.11391 5.05188C9.35697 5.29493 9.65211 5.41646 9.99933 5.41646Z" fill="#141414"/>
</svg>
