<svg width="20" height="20" viewBox="0 0 20 20" fill="none" xmlns="http://www.w3.org/2000/svg">
<path d="M1.66602 14.771V13.521C2.19379 13.521 2.62088 13.3613 2.94727 13.0418C3.27365 12.7224 3.74935 12.5627 4.37435 12.5627C4.99935 12.5627 5.48546 12.7502 5.83268 13.1252C6.1799 13.5002 6.62435 13.6877 7.16602 13.6877C7.70768 13.6877 8.15907 13.5002 8.52018 13.1252C8.88129 12.7502 9.37435 12.5627 9.99935 12.5627C10.6243 12.5627 11.1139 12.7502 11.4681 13.1252C11.8223 13.5002 12.2702 13.6877 12.8118 13.6877C13.3535 13.6877 13.8014 13.5002 14.1556 13.1252C14.5098 12.7502 14.9993 12.5627 15.6243 12.5627C16.2493 12.5627 16.725 12.7224 17.0514 13.0418C17.3778 13.3613 17.8049 13.521 18.3327 13.521V14.771C17.6799 14.771 17.1973 14.6113 16.8848 14.2918C16.5723 13.9724 16.1521 13.8127 15.6243 13.8127C15.0966 13.8127 14.6521 14.0002 14.291 14.3752C13.9299 14.7502 13.4368 14.9377 12.8118 14.9377C12.1868 14.9377 11.6938 14.7502 11.3327 14.3752C10.9716 14.0002 10.5271 13.8127 9.99935 13.8127C9.47157 13.8127 9.02365 14.0002 8.6556 14.3752C8.28754 14.7502 7.79102 14.9377 7.16602 14.9377C6.54102 14.9377 6.05143 14.7502 5.69727 14.3752C5.3431 14.0002 4.90213 13.8127 4.37435 13.8127C3.84657 13.8127 3.42643 13.9724 3.11393 14.2918C2.80143 14.6113 2.31879 14.771 1.66602 14.771ZM1.66602 11.4377V10.1877C2.19379 10.1877 2.62088 10.0279 2.94727 9.7085C3.27365 9.38905 3.74935 9.22933 4.37435 9.22933C4.99935 9.22933 5.48546 9.41683 5.83268 9.79183C6.1799 10.1668 6.62435 10.3543 7.16602 10.3543C7.70768 10.3543 8.15907 10.1668 8.52018 9.79183C8.88129 9.41683 9.37435 9.22933 9.99935 9.22933C10.6243 9.22933 11.1139 9.41683 11.4681 9.79183C11.8223 10.1668 12.2702 10.3543 12.8118 10.3543C13.3535 10.3543 13.8014 10.1668 14.1556 9.79183C14.5098 9.41683 14.9993 9.22933 15.6243 9.22933C16.2493 9.22933 16.725 9.38905 17.0514 9.7085C17.3778 10.0279 17.8049 10.1877 18.3327 10.1877V11.4377C17.6799 11.4377 17.1973 11.2779 16.8848 10.9585C16.5723 10.6391 16.1521 10.4793 15.6243 10.4793C15.0966 10.4793 14.6521 10.6668 14.291 11.0418C13.9299 11.4168 13.4368 11.6043 12.8118 11.6043C12.1868 11.6043 11.6938 11.4168 11.3327 11.0418C10.9716 10.6668 10.5271 10.4793 9.99935 10.4793C9.47157 10.4793 9.02365 10.6668 8.6556 11.0418C8.28754 11.4168 7.79102 11.6043 7.16602 11.6043C6.54102 11.6043 6.05143 11.4168 5.69727 11.0418C5.3431 10.6668 4.90213 10.4793 4.37435 10.4793C3.84657 10.4793 3.42643 10.6391 3.11393 10.9585C2.80143 11.2779 2.31879 11.4377 1.66602 11.4377ZM1.66602 8.10433V6.85433C2.19379 6.85433 2.62088 6.69461 2.94727 6.37516C3.27365 6.05572 3.74935 5.896 4.37435 5.896C4.99935 5.896 5.48546 6.0835 5.83268 6.4585C6.1799 6.8335 6.62435 7.021 7.16602 7.021C7.70768 7.021 8.15907 6.8335 8.52018 6.4585C8.88129 6.0835 9.37435 5.896 9.99935 5.896C10.6243 5.896 11.1139 6.0835 11.4681 6.4585C11.8223 6.8335 12.2702 7.021 12.8118 7.021C13.3535 7.021 13.8014 6.8335 14.1556 6.4585C14.5098 6.0835 14.9993 5.896 15.6243 5.896C16.2493 5.896 16.725 6.05572 17.0514 6.37516C17.3778 6.69461 17.8049 6.85433 18.3327 6.85433V8.10433C17.6799 8.10433 17.1973 7.94461 16.8848 7.62516C16.5723 7.30572 16.1521 7.146 15.6243 7.146C15.0966 7.146 14.6521 7.3335 14.291 7.7085C13.9299 8.0835 13.4368 8.271 12.8118 8.271C12.1868 8.271 11.6938 8.0835 11.3327 7.7085C10.9716 7.3335 10.5271 7.146 9.99935 7.146C9.47157 7.146 9.02365 7.3335 8.6556 7.7085C8.28754 8.0835 7.79102 8.271 7.16602 8.271C6.54102 8.271 6.05143 8.0835 5.69727 7.7085C5.3431 7.3335 4.90213 7.146 4.37435 7.146C3.84657 7.146 3.42643 7.30572 3.11393 7.62516C2.80143 7.94461 2.31879 8.10433 1.66602 8.10433Z" fill="#141414"/>
</svg>
