<svg width="20" height="20" viewBox="0 0 20 20" fill="none" xmlns="http://www.w3.org/2000/svg">
<path d="M13.0688 13.3331V11.1595L12.0757 9.34701C11.8767 9.38867 11.7146 9.49052 11.5896 9.65255C11.4646 9.81459 11.4021 9.99978 11.4021 10.2081V14.9512L13.4507 18.3331H11.8327L10.0132 15.347V10.2081C10.0132 9.74053 10.1406 9.31923 10.3952 8.94421C10.6498 8.56921 10.9855 8.29144 11.4021 8.1109L10.0966 5.72894C9.8188 5.20117 9.7019 4.64445 9.74587 4.0588C9.78986 3.47316 10.0156 2.97663 10.423 2.56921L11.7285 1.26367L17.5063 8.01367L18.3466 18.3331H16.9438L16.1452 8.55534L11.6521 3.30532L11.416 3.54144C11.2401 3.71736 11.1348 3.92569 11.1 4.16644C11.0653 4.40718 11.1035 4.63403 11.2146 4.84701L14.4577 10.8053V13.3331H13.0688ZM5.55491 13.3331V10.8053L8.79797 4.84701C8.90909 4.63403 8.94728 4.40718 8.91256 4.16644C8.87784 3.92569 8.77251 3.71736 8.59658 3.54144L8.36045 3.30532L3.86739 8.55534L3.06879 18.3331H1.66602L2.50629 8.01367L8.28408 1.26367L9.58962 2.56921C9.99704 2.97663 10.2227 3.47316 10.2667 4.0588C10.3107 4.64445 10.1938 5.20117 9.91602 5.72894L8.61045 8.1109C9.02712 8.29144 9.36277 8.56921 9.61741 8.94421C9.87204 9.31923 9.99935 9.74053 9.99935 10.2081V15.347L8.17991 18.3331H6.56187L8.61047 14.9512V10.2081C8.61047 9.99978 8.54797 9.81459 8.42297 9.65255C8.29796 9.49052 8.13592 9.38867 7.93685 9.34701L6.94379 11.1595V13.3331H5.55491Z" fill="#141414"/>
</svg>
