<svg width="20" height="20" viewBox="0 0 20 20" fill="none" xmlns="http://www.w3.org/2000/svg">
<path d="M5.90342 18.3332V10.6804C5.18584 10.5137 4.5782 10.141 4.08051 9.56234C3.58282 8.98363 3.33398 8.29613 3.33398 7.49984V1.6665H4.72286V7.49984H5.90342V1.6665H7.29232V7.49984H8.47288V1.6665H9.86176V7.49984C9.86176 8.29613 9.61292 8.98363 9.11523 9.56234C8.61754 10.141 8.0099 10.5137 7.29232 10.6804V18.3332H5.90342ZM14.4451 18.3332V11.6665H12.0145V5.48594C12.0145 4.37021 12.3722 3.4547 13.0875 2.73942C13.8027 2.02414 14.7182 1.6665 15.834 1.6665V18.3332H14.4451Z" fill="#141414"/>
</svg>
