<svg width="20" height="20" viewBox="0 0 20 20" fill="none" xmlns="http://www.w3.org/2000/svg">
<path d="M9.99935 18.3333L1.66602 5.7639C2.85584 4.7639 4.15792 3.96991 5.57227 3.38194C6.98661 2.79398 8.46231 2.5 9.99935 2.5C11.5364 2.5 13.0121 2.79283 14.4264 3.37848C15.8408 3.96412 17.1429 4.75926 18.3327 5.7639L9.99935 18.3333ZM9.99935 15.8472L16.4855 6.08333C15.5179 5.43981 14.487 4.91318 13.3928 4.50346C12.2986 4.09374 11.1675 3.88888 9.99935 3.88888C8.82768 3.88888 7.6968 4.09374 6.6067 4.50346C5.51661 4.91318 4.48545 5.43981 3.51322 6.08333L9.99935 15.8472ZM7.77793 8.2639C8.1061 8.2639 8.38477 8.14903 8.61393 7.91931C8.8431 7.6896 8.95768 7.41067 8.95768 7.08252C8.95768 6.75435 8.84283 6.47569 8.61312 6.24652C8.3834 6.01735 8.10446 5.90277 7.77631 5.90277C7.44816 5.90277 7.1695 6.01763 6.94033 6.24735C6.71116 6.47706 6.59658 6.75599 6.59658 7.08415C6.59658 7.41231 6.71143 7.69098 6.94114 7.92015C7.17085 8.14931 7.44978 8.2639 7.77793 8.2639ZM10.0002 12.6389C10.3283 12.6389 10.607 12.524 10.8362 12.2943C11.0653 12.0646 11.1799 11.7857 11.1799 11.4575C11.1799 11.1294 11.0651 10.8507 10.8353 10.6215C10.6056 10.3924 10.3267 10.2778 9.99854 10.2778C9.67037 10.2778 9.3917 10.3926 9.16254 10.6224C8.93337 10.8521 8.81879 11.131 8.81879 11.4592C8.81879 11.7873 8.93365 12.066 9.16337 12.2951C9.39308 12.5243 9.67201 12.6389 10.0002 12.6389Z" fill="#141414"/>
</svg>
