<svg width="20" height="20" viewBox="0 0 20 20" fill="none" xmlns="http://www.w3.org/2000/svg">
<path d="M0.833984 17.5V7.70833H2.08398V9.375H4.37565V2.5H5.62565V4.16667H7.70898V2.5H8.95898V4.16667H11.0423V2.5H12.2923V4.16667H14.3757V2.5H15.6257V9.375H17.9173V7.70833H19.1673V17.5H11.8757V15C11.8757 14.4722 11.6951 14.0278 11.334 13.6667C10.9729 13.3056 10.5284 13.125 10.0007 13.125C9.47287 13.125 9.02843 13.3056 8.66732 13.6667C8.30621 14.0278 8.12565 14.4722 8.12565 15V17.5H0.833984ZM2.08398 16.25H6.87565V15C6.87565 14.125 7.17773 13.3854 7.7819 12.7812C8.38607 12.1771 9.12565 11.875 10.0007 11.875C10.8757 11.875 11.6152 12.1771 12.2194 12.7812C12.8236 13.3854 13.1257 14.125 13.1257 15V16.25H17.9173V10.625H14.3757V5.41667H5.62565V10.625H2.08398V16.25ZM7.70898 9.79167H8.95898V7.5H7.70898V9.79167ZM11.0423 9.79167H12.2923V7.5H11.0423V9.79167Z" fill="black"/>
</svg>
