<svg width="20" height="20" viewBox="0 0 20 20" fill="none" xmlns="http://www.w3.org/2000/svg">
<path d="M17.3037 9.14437V15.7854C17.3037 16.2063 17.1579 16.5626 16.8662 16.8543C16.5746 17.146 16.2183 17.2918 15.7973 17.2918H4.22682C3.80589 17.2918 3.44959 17.146 3.15792 16.8543C2.86625 16.5626 2.72042 16.2063 2.72042 15.7854V9.12835C2.38495 8.8527 2.13307 8.49506 1.96479 8.05543C1.79653 7.6158 1.79306 7.14117 1.95438 6.63156L2.79734 3.87835C2.90845 3.52793 3.09702 3.24535 3.36304 3.0306C3.62907 2.81586 3.94691 2.7085 4.31657 2.7085H15.6915C16.0612 2.7085 16.3769 2.81106 16.6387 3.01618C16.9004 3.22131 17.0911 3.50336 17.2108 3.86233L18.0698 6.63156C18.2311 7.14117 18.2276 7.61419 18.0593 8.05062C17.8911 8.48705 17.6392 8.85164 17.3037 9.14437ZM11.8454 8.54183C12.3005 8.54183 12.6427 8.40267 12.8719 8.12435C13.101 7.84605 13.1948 7.54717 13.1531 7.22773L12.6467 3.95846H10.6371V7.25014C10.6371 7.60057 10.7557 7.90346 10.9928 8.15881C11.23 8.41416 11.5142 8.54183 11.8454 8.54183ZM8.0954 8.54183C8.47895 8.54183 8.79013 8.41416 9.02892 8.15881C9.2677 7.90346 9.38709 7.60057 9.38709 7.25014V3.95846H7.37744L6.87102 7.25977C6.82616 7.55571 6.91911 7.84337 7.14988 8.12275C7.38066 8.40214 7.69583 8.54183 8.0954 8.54183ZM4.38707 8.54183C4.69583 8.54183 4.96133 8.43419 5.18357 8.21891C5.40579 8.00362 5.54307 7.73305 5.59542 7.40721L6.08582 3.95846H4.31657C4.22575 3.95846 4.15363 3.97849 4.10021 4.01856C4.04678 4.05863 4.00671 4.11873 3.98 4.19887L3.17873 6.91039C3.06868 7.26831 3.12049 7.62969 3.33417 7.99454C3.54785 8.3594 3.89882 8.54183 4.38707 8.54183ZM15.6371 8.54183C16.0879 8.54183 16.433 8.36475 16.6723 8.01058C16.9117 7.6564 16.9694 7.28967 16.8454 6.91039L16.0025 4.18283C15.9758 4.1027 15.9357 4.04527 15.8823 4.01054C15.8289 3.97582 15.7567 3.95846 15.6659 3.95846H13.9383L14.4287 7.40721C14.4811 7.73305 14.6184 8.00362 14.8406 8.21891C15.0628 8.43419 15.3283 8.54183 15.6371 8.54183ZM4.22682 16.0418H15.7973C15.8721 16.0418 15.9336 16.0178 15.9816 15.9697C16.0297 15.9216 16.0538 15.8602 16.0538 15.7854V9.71808C15.9629 9.75119 15.8871 9.77175 15.8262 9.77977C15.7653 9.78778 15.7022 9.79179 15.6371 9.79179C15.2621 9.79179 14.9322 9.72395 14.6475 9.58827C14.3628 9.45259 14.0869 9.23517 13.8198 8.93602C13.5858 9.1967 13.3091 9.4045 12.9896 9.55941C12.6702 9.71433 12.3059 9.79179 11.8967 9.79179C11.5431 9.79179 11.2097 9.71834 10.8967 9.57143C10.5837 9.42453 10.2888 9.21273 10.0121 8.93602C9.75459 9.21273 9.46293 9.42453 9.13707 9.57143C8.81122 9.71834 8.48109 9.79179 8.14669 9.79179C7.77062 9.79179 7.41806 9.72368 7.089 9.58748C6.75993 9.45125 6.4704 9.2341 6.2204 8.93602C5.86997 9.28645 5.54705 9.51668 5.25165 9.62673C4.95625 9.73677 4.66805 9.79179 4.38707 9.79179C4.3219 9.79179 4.25459 9.78778 4.18515 9.77977C4.11569 9.77175 4.04411 9.75119 3.9704 9.71808V15.7854C3.9704 15.8602 3.99443 15.9216 4.0425 15.9697C4.09059 16.0178 4.15202 16.0418 4.22682 16.0418Z" fill="black"/>
</svg>
