<svg width="20" height="20" viewBox="0 0 20 20" fill="none" xmlns="http://www.w3.org/2000/svg">
<path d="M7.99935 16.9443H11.9855V15.8609L12.8327 15.5137C13.8188 15.1063 14.6348 14.5635 15.2806 13.8853C15.9264 13.207 16.3882 12.4628 16.666 11.6526H3.31879C3.59656 12.4628 4.06184 13.2093 4.71462 13.8922C5.3674 14.5751 6.1799 15.1156 7.15212 15.5137L7.99935 15.8609V16.9443ZM6.61045 18.3332V16.7637C5.14287 16.1804 3.96811 15.3147 3.08616 14.1665C2.20422 13.0184 1.73084 11.7221 1.66602 10.2776H3.22158V3.34707L18.3327 1.6665V2.77761L8.49935 3.87484V5.5554H18.3327V6.6665H8.49935V10.2776H18.3188C18.2632 11.7221 17.7899 13.0184 16.8987 14.1665C16.0075 15.3147 14.8327 16.1804 13.3744 16.7637V18.3332H6.61045ZM6.41602 5.5554H7.38825V3.98594L6.41602 4.09707V5.5554ZM4.33268 5.5554H5.30491V4.22205L4.33268 4.32871V5.5554ZM6.41602 10.2776H7.38825V6.6665H6.41602V10.2776ZM4.33268 10.2776H5.30491V6.6665H4.33268V10.2776Z" fill="#141414"/>
</svg>
