<svg width="20" height="20" viewBox="0 0 20 20" fill="none" xmlns="http://www.w3.org/2000/svg">
<path d="M3.51322 9.66669C3.23546 9.66669 2.99704 9.56715 2.79795 9.36806C2.59888 9.16899 2.49935 8.93057 2.49935 8.65279C2.49935 8.37503 2.59888 8.1366 2.79795 7.93752C2.99704 7.73845 3.23546 7.63892 3.51322 7.63892C3.791 7.63892 4.02943 7.73845 4.22849 7.93752C4.42758 8.1366 4.52712 8.37503 4.52712 8.65279C4.52712 8.93057 4.42758 9.16899 4.22849 9.36806C4.02943 9.56715 3.791 9.66669 3.51322 9.66669ZM2.50374 18.3333V14.3611H1.66602V10.9583C1.66602 10.7685 1.73685 10.6123 1.87852 10.4896C2.0202 10.3669 2.19575 10.3056 2.40518 10.3056H4.62268C4.83211 10.3056 5.00743 10.3669 5.14864 10.4896C5.28985 10.6123 5.36045 10.7685 5.36045 10.9583V14.3611H4.54099V16.9445H11.8744V12.1805H10.2632C9.33269 12.1805 8.53986 11.8624 7.88477 11.2261C7.22968 10.5899 6.90214 9.81541 6.90214 8.90277C6.90214 8.23148 7.09543 7.60533 7.482 7.02431C7.86856 6.44328 8.3975 6.02777 9.06881 5.77777C9.18454 4.8287 9.57922 4.04514 10.2528 3.42708C10.9264 2.80903 11.7146 2.5 12.6174 2.5C13.5202 2.5 14.3061 2.80903 14.975 3.42708C15.644 4.04514 16.041 4.8287 16.166 5.77777C16.8373 6.02777 17.3662 6.44328 17.7528 7.02431C18.1394 7.60533 18.3327 8.23148 18.3327 8.90277C18.3327 9.81541 18.0028 10.5899 17.3431 11.2261C16.6834 11.8624 15.8882 12.1805 14.9577 12.1805H13.2632V16.9445H17.5827V18.3333H2.50374ZM10.2632 10.7917H14.9577C15.4855 10.7917 15.9484 10.6111 16.3466 10.25C16.7447 9.88889 16.9438 9.43981 16.9438 8.90277C16.9438 8.48904 16.8176 8.11361 16.5653 7.7765C16.313 7.43939 15.9947 7.18981 15.6105 7.02777L14.8188 6.69444L14.7771 5.95833C14.7494 5.37038 14.5237 4.87847 14.1001 4.48263C13.6764 4.08679 13.1811 3.88888 12.6141 3.88888C12.0471 3.88888 11.5529 4.08679 11.1315 4.48263C10.7101 4.87847 10.4855 5.37038 10.4577 5.95833L10.416 6.69444L9.62435 7.02777C9.24009 7.18981 8.9218 7.43939 8.6695 7.7765C8.41718 8.11361 8.29102 8.48904 8.29102 8.90277C8.29102 9.43981 8.48777 9.88889 8.88129 10.25C9.27482 10.6111 9.73547 10.7917 10.2632 10.7917Z" fill="#141414"/>
</svg>
