<svg width="20" height="20" viewBox="0 0 20 20" fill="none" xmlns="http://www.w3.org/2000/svg">
<path d="M5.1389 19.1668V11.5279H3.19444C2.65741 11.5279 2.19908 11.3381 1.81944 10.9585C1.43981 10.5789 1.25 10.1182 1.25 9.57656C1.25 9.03489 1.43981 8.57656 1.81944 8.20156C2.19908 7.82656 2.65741 7.63906 3.19444 7.63906H5.1389V6.52793H3.19444C2.65741 6.52793 2.19908 6.33812 1.81944 5.9585C1.43981 5.57887 1.25 5.11823 1.25 4.57656C1.25 4.03489 1.43981 3.57656 1.81944 3.20156C2.19908 2.82656 2.65741 2.63906 3.19444 2.63906H5.1389V0.833496H6.52777V2.63906H8.47223C9.01667 2.63906 9.47685 2.82702 9.85277 3.20295C10.2287 3.57887 10.4167 4.03905 10.4167 4.5835C10.4167 5.12054 10.2287 5.57887 9.85277 5.9585C9.47685 6.33812 9.01667 6.52793 8.47223 6.52793H6.52777V7.63906H8.47223C9.01667 7.63906 9.47685 7.82702 9.85277 8.20295C10.2287 8.57887 10.4167 9.03905 10.4167 9.5835C10.4167 10.1205 10.2287 10.5789 9.85277 10.9585C9.47685 11.3381 9.01667 11.5279 8.47223 11.5279H6.52777V19.1668H5.1389ZM3.19444 10.1391H8.47223C8.62963 10.1391 8.76158 10.0835 8.86806 9.97239C8.97455 9.86128 9.02779 9.73165 9.02779 9.5835C9.02779 9.42609 8.97455 9.29415 8.86806 9.18766C8.76158 9.08118 8.62963 9.02793 8.47223 9.02793H3.19444C3.04628 9.02793 2.91665 9.08118 2.80554 9.18766C2.69443 9.29415 2.63888 9.42378 2.63888 9.57656C2.63888 9.72934 2.69443 9.86128 2.80554 9.97239C2.91665 10.0835 3.04628 10.1391 3.19444 10.1391ZM3.19444 5.13906H8.47223C8.62963 5.13906 8.76158 5.0835 8.86806 4.97239C8.97455 4.86128 9.02779 4.73165 9.02779 4.5835C9.02779 4.42609 8.97455 4.29415 8.86806 4.18766C8.76158 4.08118 8.62963 4.02793 8.47223 4.02793H3.19444C3.04628 4.02793 2.91665 4.08118 2.80554 4.18766C2.69443 4.29415 2.63888 4.42378 2.63888 4.57656C2.63888 4.72934 2.69443 4.86128 2.80554 4.97239C2.91665 5.0835 3.04628 5.13906 3.19444 5.13906ZM12.5 19.1668V17.778H14.3056V11.5696C13.5463 11.4029 12.9167 11.0233 12.4167 10.4307C11.9167 9.83813 11.6667 9.13905 11.6667 8.3335V0.833496H18.3333V8.3335C18.3333 9.12979 18.0833 9.82654 17.5833 10.4238C17.0833 11.021 16.4537 11.4029 15.6944 11.5696V17.778H17.5V19.1668H12.5ZM15 10.278C15.5417 10.278 16.0012 10.0893 16.3785 9.71198C16.7558 9.33466 16.9445 8.87516 16.9445 8.3335V6.38904H13.0555V8.3335C13.0555 8.87516 13.2442 9.33466 13.6215 9.71198C13.9988 10.0893 14.4583 10.278 15 10.278ZM13.0555 5.27795H16.9445V2.22237H13.0555V5.27795Z" fill="#141414"/>
</svg>
