<svg width="20" height="20" viewBox="0 0 20 20" fill="none" xmlns="http://www.w3.org/2000/svg">
<path d="M10.9173 19.1667H8.50065L8.75065 18.9687C8.91732 18.8368 9.10135 18.6944 9.30273 18.5417C9.50412 18.3889 9.68815 18.2465 9.85482 18.1146L10.1048 17.9167H10.959C12.3062 17.9167 13.5597 17.5139 14.7194 16.7083C15.8791 15.9028 16.7923 14.9028 17.459 13.7083C16.209 13.5972 15.0076 13.309 13.8548 12.8437C12.702 12.3785 11.6847 11.7083 10.8027 10.8333C9.92079 9.95833 9.25065 8.94792 8.79232 7.80208C8.33398 6.65625 8.04926 5.46528 7.93815 4.22917C6.71593 4.89583 5.71246 5.80208 4.92773 6.94792C4.14301 8.09375 3.75065 9.36111 3.75065 10.75V10.9896C3.75065 11.0799 3.7576 11.1597 3.77148 11.2292L3.58317 11.3067C3.45763 11.3584 3.31901 11.4124 3.16732 11.4687C3.01562 11.5251 2.87701 11.5791 2.75146 11.6308L2.56315 11.7083C2.53537 11.5278 2.51801 11.3611 2.51107 11.2083C2.50412 11.0556 2.50065 10.9028 2.50065 10.75C2.50065 8.72222 3.14648 6.93403 4.43815 5.38542C5.72982 3.83681 7.37565 2.875 9.37565 2.5C9.12565 3.86111 9.20204 5.19885 9.60482 6.51323C10.0076 7.8276 10.702 8.97855 11.6882 9.96606C12.6743 10.9536 13.8236 11.649 15.1361 12.0524C16.4486 12.4557 17.7923 12.5322 19.1673 12.2819C18.8062 14.2847 17.8479 15.9329 16.2923 17.2264C14.7368 18.5199 12.9451 19.1667 10.9173 19.1667ZM5.00065 17.9167H8.75065C9.21361 17.9167 9.60713 17.7551 9.93121 17.432C10.2553 17.1089 10.4173 16.7165 10.4173 16.2549C10.4173 15.7933 10.2586 15.3993 9.94103 15.0729C9.6235 14.7465 9.2406 14.5833 8.79232 14.5833H7.97982L7.66732 13.8542C7.43121 13.3125 7.07226 12.8819 6.59048 12.5625C6.10872 12.2431 5.57878 12.0833 5.00065 12.0833C4.20898 12.0833 3.52496 12.3681 2.94857 12.9375C2.37218 13.5069 2.08398 14.1944 2.08398 15C2.08398 15.8102 2.36755 16.4988 2.93467 17.066C3.50181 17.6331 4.19047 17.9167 5.00065 17.9167ZM5.00065 19.1667C3.84787 19.1667 2.86523 18.7604 2.05273 17.9479C1.24023 17.1354 0.833984 16.1528 0.833984 15C0.833984 13.8472 1.24023 12.8646 2.05273 12.0521C2.86523 11.2396 3.84787 10.8333 5.00065 10.8333C5.83398 10.8333 6.5944 11.059 7.2819 11.5104C7.9694 11.9618 8.47982 12.5694 8.81315 13.3333C9.60482 13.3611 10.2784 13.6562 10.834 14.2187C11.3895 14.7812 11.6673 15.4583 11.6673 16.25C11.6673 17.0556 11.3826 17.7431 10.8132 18.3125C10.2437 18.8819 9.55621 19.1667 8.75065 19.1667H5.00065Z" fill="#141414"/>
</svg>
