<svg width="20" height="20" viewBox="0 0 20 20" fill="none" xmlns="http://www.w3.org/2000/svg">
<path d="M1.66602 8.3611V7.52777C1.66602 5.9861 2.40329 4.76273 3.87783 3.85765C5.35236 2.95255 7.39286 2.5 9.99935 2.5C12.6058 2.5 14.6463 2.95255 16.1209 3.85765C17.5954 4.76273 18.3327 5.9861 18.3327 7.52777V8.3611H1.66602ZM3.12435 6.97223H16.8744C16.7401 6.06483 16.0468 5.32408 14.7945 4.75C13.5422 4.17592 11.9438 3.88888 9.99935 3.88888C8.05491 3.88888 6.45189 4.17592 5.19031 4.75C3.92872 5.32408 3.24007 6.06483 3.12435 6.97223ZM1.66602 12.0556V10.6667C2.13824 10.6667 2.53638 10.5185 2.86045 10.2222C3.18454 9.92594 3.7262 9.77779 4.48545 9.77779C5.24472 9.77779 5.75166 9.92594 6.00629 10.2222C6.26093 10.5185 6.66139 10.6667 7.20768 10.6667C7.75397 10.6667 8.16601 10.5185 8.44379 10.2222C8.72157 9.92594 9.24009 9.77779 9.99935 9.77779C10.7586 9.77779 11.2771 9.92594 11.5549 10.2222C11.8327 10.5185 12.2447 10.6667 12.791 10.6667C13.3373 10.6667 13.7378 10.5185 13.9924 10.2222C14.247 9.92594 14.754 9.77779 15.5132 9.77779C16.2725 9.77779 16.8188 9.92594 17.1521 10.2222C17.4855 10.5185 17.879 10.6667 18.3327 10.6667V12.0556C17.5734 12.0556 17.0549 11.9074 16.7771 11.6111C16.4993 11.3148 16.0873 11.1667 15.541 11.1667C14.9947 11.1667 14.5896 11.3148 14.3257 11.6111C14.0619 11.9074 13.5503 12.0556 12.791 12.0556C12.0318 12.0556 11.5132 11.9074 11.2355 11.6111C10.9577 11.3148 10.5456 11.1667 9.99935 11.1667C9.45306 11.1667 9.04102 11.3148 8.76325 11.6111C8.48547 11.9074 7.96695 12.0556 7.20768 12.0556C6.44842 12.0556 5.94147 11.9074 5.68685 11.6111C5.43222 11.3148 5.03176 11.1667 4.48545 11.1667C3.93916 11.1667 3.52316 11.3148 3.23745 11.6111C2.95173 11.9074 2.42792 12.0556 1.66602 12.0556ZM3.05489 17.5C2.67989 17.5 2.35466 17.3623 2.0792 17.0868C1.80374 16.8114 1.66602 16.4861 1.66602 16.1111V13.5H18.3327V16.1111C18.3327 16.4861 18.195 16.8114 17.9195 17.0868C17.644 17.3623 17.3188 17.5 16.9438 17.5H3.05489ZM3.05489 16.1111H16.9438V14.8889H3.05489V16.1111Z" fill="#141414"/>
</svg>
