<svg width="20" height="20" viewBox="0 0 20 20" fill="none" xmlns="http://www.w3.org/2000/svg">
<g clip-path="url(#clip0_803_4781)">
<path d="M1.66667 19.1667V17.9167H2.5C2.93056 17.9167 3.35764 17.8438 3.78125 17.6979C4.20486 17.5521 4.61111 17.2847 5 16.8958C5.38889 17.2847 5.79514 17.5521 6.21875 17.6979C6.64236 17.8438 7.06944 17.9167 7.5 17.9167C7.91667 17.9167 8.34375 17.8403 8.78125 17.6875C9.21875 17.5347 9.625 17.2708 10 16.8958C10.4028 17.2847 10.8125 17.5521 11.2292 17.6979C11.6458 17.8438 12.0694 17.9167 12.5 17.9167C12.9167 17.9167 13.3438 17.8403 13.7812 17.6875C14.2188 17.5347 14.625 17.2708 15 16.8958C15.375 17.2708 15.7812 17.5347 16.2188 17.6875C16.6562 17.8403 17.0833 17.9167 17.5 17.9167H18.3333V19.1667H17.5C17.0972 19.1667 16.684 19.1076 16.2604 18.9896C15.8368 18.8715 15.4167 18.6528 15 18.3333C14.5833 18.6528 14.1632 18.8715 13.7396 18.9896C13.316 19.1076 12.9028 19.1667 12.5 19.1667C12.0972 19.1667 11.684 19.1076 11.2604 18.9896C10.8368 18.8715 10.4167 18.6528 10 18.3333C9.58333 18.6528 9.16319 18.8715 8.73958 18.9896C8.31597 19.1076 7.90278 19.1667 7.5 19.1667C7.09722 19.1667 6.68403 19.1076 6.26042 18.9896C5.83681 18.8715 5.41667 18.6528 5 18.3333C4.58333 18.6528 4.16319 18.8715 3.73958 18.9896C3.31597 19.1076 2.90278 19.1667 2.5 19.1667H1.66667ZM7.5 15.9167C7.04167 15.9167 6.59028 15.7917 6.14583 15.5417C5.70139 15.2917 5.31944 14.9653 5 14.5625C4.81944 14.7569 4.60417 14.9479 4.35417 15.1354C4.10417 15.3229 3.86111 15.4931 3.625 15.6458C3.08333 15.5347 2.49653 15.3854 1.86458 15.1979C1.23264 15.0104 0.611111 14.8056 0 14.5833C0.736111 14.2917 1.69097 14 2.86458 13.7083C4.03819 13.4167 5.11806 13.1875 6.10417 13.0208L7.27083 9.29167C7.38194 8.90278 7.61806 8.63194 7.97917 8.47917C8.34028 8.32639 8.69444 8.34028 9.04167 8.52083L11.25 9.6875L13.7708 8.35417L15.2292 4.97917L14.8125 3.875L15.8125 1.6875L18.0833 2.70833L17.1042 4.89583L16 5.3125L12.75 12.875C14.0139 13.0278 15.3403 13.2708 16.7292 13.6042C18.1181 13.9375 19.2083 14.2639 20 14.5833C19.3889 14.8056 18.7674 15.0104 18.1354 15.1979C17.5035 15.3854 16.9167 15.5347 16.375 15.6458C16.1389 15.4931 15.8958 15.3229 15.6458 15.1354C15.3958 14.9479 15.1806 14.7569 15 14.5625C14.6806 14.9653 14.2986 15.2917 13.8542 15.5417C13.4097 15.7917 12.9583 15.9167 12.5 15.9167C12.0417 15.9167 11.5903 15.7917 11.1458 15.5417C10.7014 15.2917 10.3194 14.9653 10 14.5625C9.68056 14.9653 9.29861 15.2917 8.85417 15.5417C8.40972 15.7917 7.95833 15.9167 7.5 15.9167ZM11.8542 12.7708L12.9375 10.1875L11.25 11.0625L9.66667 10.2708L8.91667 12.7083H10C10.3194 12.7083 10.6285 12.7118 10.9271 12.7188C11.2257 12.7257 11.5347 12.7431 11.8542 12.7708ZM10 7.625C9.58333 7.625 9.22569 7.47569 8.92708 7.17708C8.62847 6.87847 8.47917 6.52083 8.47917 6.10417C8.47917 5.6875 8.62847 5.32986 8.92708 5.03125C9.22569 4.73264 9.58333 4.58333 10 4.58333C10.4167 4.58333 10.7743 4.73264 11.0729 5.03125C11.3715 5.32986 11.5208 5.6875 11.5208 6.10417C11.5208 6.52083 11.3715 6.87847 11.0729 7.17708C10.7743 7.47569 10.4167 7.625 10 7.625Z" fill="#141414"/>
</g>
<defs>
<clipPath id="clip0_803_4781">
<rect width="20" height="20" fill="white"/>
</clipPath>
</defs>
</svg>
