<svg width="20" height="20" viewBox="0 0 20 20" fill="none" xmlns="http://www.w3.org/2000/svg">
<path d="M2.5 17.5V5.90277H5.90277V2.5H14.0972V9.30556H17.5V17.5H11.0139V14.0972H8.9861V17.5H2.5ZM3.88888 16.1111H5.90277V14.0972H3.88888V16.1111ZM3.88888 12.7083H5.90277V10.6944H3.88888V12.7083ZM3.88888 9.30556H5.90277V7.29167H3.88888V9.30556ZM7.29167 12.7083H9.30556V10.6944H7.29167V12.7083ZM7.29167 9.30556H9.30556V7.29167H7.29167V9.30556ZM7.29167 5.90277H9.30556V3.88888H7.29167V5.90277ZM10.6944 12.7083H12.7083V10.6944H10.6944V12.7083ZM10.6944 9.30556H12.7083V7.29167H10.6944V9.30556ZM10.6944 5.90277H12.7083V3.88888H10.6944V5.90277ZM14.0972 16.1111H16.1111V14.0972H14.0972V16.1111ZM14.0972 12.7083H16.1111V10.6944H14.0972V12.7083Z" fill="#141414"/>
</svg>
