<svg width="20" height="20" viewBox="0 0 20 20" fill="none" xmlns="http://www.w3.org/2000/svg">
<path d="M3.05489 3.3335L4.63822 6.55573H7.27712L5.69379 3.3335H7.48545L9.06879 6.55573H11.7077L10.1243 3.3335H11.916L13.4994 6.55573H16.1382L14.5549 3.3335H16.9438C17.3188 3.3335 17.644 3.47123 17.9195 3.74668C18.195 4.02214 18.3327 4.34737 18.3327 4.72237V15.278C18.3327 15.653 18.195 15.9782 17.9195 16.2536C17.644 16.5291 17.3188 16.6668 16.9438 16.6668H3.05489C2.67989 16.6668 2.35466 16.5291 2.0792 16.2536C1.80374 15.9782 1.66602 15.653 1.66602 15.278V4.72237C1.66602 4.34737 1.80374 4.02214 2.0792 3.74668C2.35466 3.47123 2.67989 3.3335 3.05489 3.3335ZM3.05489 7.9446V15.278H16.9438V7.9446H3.05489Z" fill="#141414"/>
</svg>
