<svg width="20" height="20" viewBox="0 0 20 20" fill="none" xmlns="http://www.w3.org/2000/svg">
<path d="M3.84786 16.6665V15.2776H5.57009V11.3332L0.833984 4.1665H11.6951L6.95896 11.3332V15.2776H8.68119V16.6665H3.84786ZM4.4173 7.30538H8.11176L9.26453 5.55538H3.26453L4.4173 7.30538ZM13.2645 16.6665C12.5701 16.6665 11.9914 16.435 11.5284 15.9721C11.0655 15.5091 10.834 14.9304 10.834 14.2359C10.834 13.5415 11.0655 12.9628 11.5284 12.4998C11.9914 12.0369 12.5701 11.8054 13.2645 11.8054C13.4544 11.8054 13.6349 11.8228 13.8062 11.8575C13.9775 11.8922 14.1442 11.9443 14.3062 12.0137V4.1665H18.334V6.37484H15.6951V14.2359C15.6951 14.9304 15.4636 15.5091 15.0007 15.9721C14.5377 16.435 13.959 16.6665 13.2645 16.6665Z" fill="#141414"/>
</svg>
