<svg width="20" height="20" viewBox="0 0 20 20" fill="none" xmlns="http://www.w3.org/2000/svg">
<g clip-path="url(#clip0_1084_3183)">
<path d="M3.27083 15.8332C2.36806 15.8332 1.59722 15.5172 0.958333 14.8853C0.319444 14.2533 0 13.479 0 12.5623C0 11.6457 0.315972 10.8714 0.947917 10.2394C1.57986 9.60748 2.34722 9.2915 3.25 9.2915L2.27083 8.5415H0V7.49984H3.77083L5.83333 8.74984L9.14583 7.49984H12.0625L10.4375 5.4165H8.58333V4.1665H11.0625L12.8542 6.479L15.5417 5.14567V7.31234H13.5L15.2708 9.604C15.5069 9.50678 15.7431 9.43387 15.9792 9.38525C16.2153 9.33664 16.4583 9.31234 16.7083 9.31234C17.625 9.31234 18.4028 9.62831 19.0417 10.2603C19.6806 10.8922 20 11.6665 20 12.5832C20 13.4998 19.6806 14.2707 19.0417 14.8957C18.4028 15.5207 17.625 15.8332 16.7083 15.8332C15.8056 15.8332 15.0382 15.5172 14.4062 14.8853C13.7743 14.2533 13.4583 13.4859 13.4583 12.5832C13.4583 12.1665 13.5278 11.7707 13.6667 11.3957C13.8056 11.0207 14.0139 10.6804 14.2917 10.3748L13.5625 9.43734L10.5208 14.0832H8.22917L6.54167 12.5623C6.54167 13.479 6.22569 14.2533 5.59375 14.8853C4.96181 15.5172 4.1875 15.8332 3.27083 15.8332ZM3.27083 14.5832C3.84028 14.5832 4.31944 14.3853 4.70833 13.9894C5.09722 13.5936 5.29167 13.1179 5.29167 12.5623C5.29167 12.0068 5.09722 11.5311 4.70833 11.1353C4.31944 10.7394 3.84028 10.5415 3.27083 10.5415C2.71528 10.5415 2.23958 10.7359 1.84375 11.1248C1.44792 11.5137 1.25 11.9929 1.25 12.5623C1.25 13.1318 1.44792 13.6109 1.84375 13.9998C2.23958 14.3887 2.71528 14.5832 3.27083 14.5832ZM16.7083 14.5832C17.2778 14.5832 17.7604 14.3887 18.1562 13.9998C18.5521 13.6109 18.75 13.1387 18.75 12.5832C18.75 12.0137 18.5521 11.5311 18.1562 11.1353C17.7604 10.7394 17.2778 10.5415 16.7083 10.5415C16.1528 10.5415 15.6806 10.7394 15.2917 11.1353C14.9028 11.5311 14.7083 12.0137 14.7083 12.5832C14.7083 13.1387 14.9028 13.6109 15.2917 13.9998C15.6806 14.3887 16.1528 14.5832 16.7083 14.5832ZM9.85417 12.8332L12.5208 8.74984H9.39583L5.79167 10.104L8.6875 12.8332H9.85417Z" fill="#141414"/>
</g>
<defs>
<clipPath id="clip0_1084_3183">
<rect width="20" height="20" fill="white"/>
</clipPath>
</defs>
</svg>
