<svg width="24" height="24" viewBox="0 0 24 24" fill="none" xmlns="http://www.w3.org/2000/svg">
<g id="leadingIcon">
<path id="Vector" d="M6.9498 23L9.8498 8.35L7.3248 9.425V12.75H5.7998V8.425L10.5998 6.4C10.8331 6.3 11.079 6.2375 11.3373 6.2125C11.5956 6.1875 11.8498 6.2 12.0998 6.25C12.3831 6.3 12.629 6.39167 12.8373 6.525C13.0456 6.65833 13.2165 6.825 13.3498 7.025L14.3998 8.675C14.9165 9.475 15.5623 10.1042 16.3373 10.5625C17.1123 11.0208 17.9415 11.25 18.8248 11.25V12.75C17.6581 12.7167 16.629 12.4625 15.7373 11.9875C14.8456 11.5125 14.0415 10.7833 13.3248 9.8L12.3748 13.6L14.6748 15.675V23H13.1748V17L10.4748 14.55L8.4998 23H6.9498ZM13.4998 5.15C12.9998 5.15 12.5706 4.97083 12.2123 4.6125C11.854 4.25417 11.6748 3.825 11.6748 3.325C11.6748 2.825 11.854 2.39583 12.2123 2.0375C12.5706 1.67917 12.9998 1.5 13.4998 1.5C13.9998 1.5 14.429 1.67917 14.7873 2.0375C15.1456 2.39583 15.3248 2.825 15.3248 3.325C15.3248 3.825 15.1456 4.25417 14.7873 4.6125C14.429 4.97083 13.9998 5.15 13.4998 5.15Z" fill="#141414"/>
</g>
</svg>
