<svg width="20" height="20" viewBox="0 0 20 20" fill="none" xmlns="http://www.w3.org/2000/svg">
<path d="M5.18815 17.4998C5.0076 17.4998 4.84787 17.4478 4.70898 17.3436C4.5701 17.2394 4.50065 17.104 4.50065 16.9373V15.1873C4.09787 14.9651 3.80273 14.6457 3.61523 14.229C3.42773 13.8123 3.33398 13.3679 3.33398 12.8957V4.62484C3.33398 3.59706 3.86523 2.84706 4.92773 2.37484C5.99023 1.90262 7.68815 1.6665 10.0215 1.6665C12.327 1.6665 14.0111 1.90262 15.0736 2.37484C16.1361 2.84706 16.6673 3.59706 16.6673 4.62484V12.8957C16.6673 13.3679 16.5736 13.8123 16.3861 14.229C16.1986 14.6457 15.9034 14.9651 15.5007 15.1873V16.9373C15.5007 17.104 15.4312 17.2394 15.2923 17.3436C15.1534 17.4478 14.9937 17.4998 14.8132 17.4998H14.4173C14.2229 17.4998 14.0562 17.4478 13.9173 17.3436C13.7784 17.2394 13.709 17.104 13.709 16.9373V15.7915H6.29232V16.9373C6.29232 17.104 6.22287 17.2394 6.08398 17.3436C5.9451 17.4478 5.77843 17.4998 5.58398 17.4998H5.18815ZM10.0215 4.08317H15.4173H4.58398H10.0215ZM13.709 10.1873H4.58398H15.4173H13.709ZM4.58398 8.93734H15.4173V5.33317H4.58398V8.93734ZM6.79232 13.4998C7.11176 13.4998 7.3826 13.3887 7.60482 13.1665C7.82704 12.9443 7.93815 12.6734 7.93815 12.354C7.93815 12.0346 7.82704 11.7637 7.60482 11.5415C7.3826 11.3193 7.11176 11.2082 6.79232 11.2082C6.47287 11.2082 6.20204 11.3193 5.97982 11.5415C5.7576 11.7637 5.64648 12.0346 5.64648 12.354C5.64648 12.6734 5.7576 12.9443 5.97982 13.1665C6.20204 13.3887 6.47287 13.4998 6.79232 13.4998ZM13.209 13.4998C13.5284 13.4998 13.7993 13.3887 14.0215 13.1665C14.2437 12.9443 14.3548 12.6734 14.3548 12.354C14.3548 12.0346 14.2437 11.7637 14.0215 11.5415C13.7993 11.3193 13.5284 11.2082 13.209 11.2082C12.8895 11.2082 12.6187 11.3193 12.3965 11.5415C12.1743 11.7637 12.0632 12.0346 12.0632 12.354C12.0632 12.6734 12.1743 12.9443 12.3965 13.1665C12.6187 13.3887 12.8895 13.4998 13.209 13.4998ZM4.58398 4.08317H15.4173C15.084 3.72206 14.4451 3.43734 13.5007 3.229C12.5562 3.02067 11.3965 2.9165 10.0215 2.9165C8.3826 2.9165 7.12565 3.01025 6.25065 3.19775C5.37565 3.38525 4.8201 3.68039 4.58398 4.08317ZM6.29232 14.5415H13.709C14.1951 14.5415 14.6013 14.354 14.9277 13.979C15.2541 13.604 15.4173 13.1734 15.4173 12.6873V10.1873H4.58398V12.6873C4.58398 13.1734 4.74718 13.604 5.07357 13.979C5.39996 14.354 5.80621 14.5415 6.29232 14.5415Z" fill="#141414"/>
</svg>
