<svg width="316" height="94" viewBox="0 0 316 94" fill="none" xmlns="http://www.w3.org/2000/svg">
<path d="M1 92C0.447715 92 0 92.4477 0 93C0 93.5523 0.447715 94 1 94V92ZM91 93V94H92V93H91ZM91 79V78H90V79H91ZM130.5 79V80H131.5V79H130.5ZM130.5 70.5V69.5H129.5V70.5H130.5ZM140 70.5V71.5H141V70.5H140ZM140 28.5V27.5H139V28.5H140ZM149 28.5V29.5H150V28.5H149ZM149 17.5V16.5H148V17.5H149ZM154.5 17.5V18.5H155.31L155.478 17.7075L154.5 17.5ZM1 94H91V92H1V94ZM92 93V79H90V93H92ZM91 80H130.5V78H91V80ZM131.5 79V70.5H129.5V79H131.5ZM130.5 71.5H140V69.5H130.5V71.5ZM141 70.5V28.5H139V70.5H141ZM140 29.5H149V27.5H140V29.5ZM150 28.5V17.5H148V28.5H150ZM149 18.5H154.5V16.5H149V18.5ZM155.478 17.7075L158.978 1.2075L157.022 0.792496L153.522 17.2925L155.478 17.7075Z" fill="#9747FF"/>
<path d="M315 92C315.552 92 316 92.4477 316 93C316 93.5523 315.552 94 315 94V92ZM225 93V94H224V93H225ZM225 79V78H226V79H225ZM185.5 79V80H184.5V79H185.5ZM185.5 70.5V69.5H186.5V70.5H185.5ZM176 70.5V71.5H175V70.5H176ZM176 28.5V27.5H177V28.5H176ZM167 28.5V29.5H166V28.5H167ZM167 17.5V16.5H168V17.5H167ZM161.5 17.5V18.5H160.69L160.522 17.7075L161.5 17.5ZM315 94H225V92H315V94ZM224 93V79H226V93H224ZM225 80H185.5V78H225V80ZM184.5 79V70.5H186.5V79H184.5ZM185.5 71.5H176V69.5H185.5V71.5ZM175 70.5V28.5H177V70.5H175ZM176 29.5H167V27.5H176V29.5ZM166 28.5V17.5H168V28.5H166ZM167 18.5H161.5V16.5H167V18.5ZM160.522 17.7075L157.022 1.2075L158.978 0.792496L162.478 17.2925L160.522 17.7075Z" fill="#9747FF"/>
</svg>
