<svg width="24" height="24" viewBox="0 0 24 24" fill="none" xmlns="http://www.w3.org/2000/svg">
<g id="leadingIcon">
<path id="Vector" d="M14.0961 11.0962H20.9038V6.28851H14.0961V11.0962ZM17.5 9.90388L15.0192 8.17313V7.23081L17.5 8.96158L19.9808 7.23081V8.17313L17.5 9.90388ZM2.3077 20.3077C1.80257 20.3077 1.375 20.1327 1.025 19.7827C0.675 19.4327 0.5 19.0051 0.5 18.5V5.50006C0.5 4.99494 0.675 4.56738 1.025 4.21738C1.375 3.86738 1.80257 3.69238 2.3077 3.69238H21.6922C22.1974 3.69238 22.6249 3.86738 22.9749 4.21738C23.3249 4.56738 23.4999 4.99494 23.4999 5.50006V18.5C23.4999 19.0051 23.3249 19.4327 22.9749 19.7827C22.6249 20.1327 22.1974 20.3077 21.6922 20.3077H2.3077ZM15.3422 18.8077H21.6923C21.7692 18.8077 21.8397 18.7757 21.9038 18.7116C21.9679 18.6474 22 18.5769 22 18.5V5.50006C22 5.42314 21.9679 5.35263 21.9038 5.28851C21.8397 5.22441 21.7692 5.19236 21.6923 5.19236H2.3077C2.23077 5.19236 2.16024 5.22441 2.09613 5.28851C2.03203 5.35263 1.99998 5.42314 1.99998 5.50006V18.5C1.99998 18.5769 2.03203 18.6474 2.09613 18.7116C2.16024 18.7757 2.23077 18.8077 2.3077 18.8077H2.6577C3.3577 17.7308 4.26668 16.8783 5.38463 16.2501C6.50256 15.6219 7.70767 15.3078 8.99998 15.3078C10.2923 15.3078 11.4974 15.6219 12.6153 16.2501C13.7333 16.8783 14.6423 17.7308 15.3422 18.8077ZM8.99998 14.1154C9.76279 14.1154 10.4118 13.8478 10.9471 13.3126C11.4823 12.7773 11.7499 12.1282 11.7499 11.3654C11.7499 10.6026 11.4823 9.9536 10.9471 9.41833C10.4118 8.88308 9.76279 8.61546 8.99998 8.61546C8.23716 8.61546 7.58812 8.88308 7.05288 9.41833C6.51762 9.9536 6.25 10.6026 6.25 11.3654C6.25 12.1282 6.51762 12.7773 7.05288 13.3126C7.58812 13.8478 8.23716 14.1154 8.99998 14.1154ZM4.54997 18.8077H13.45C12.8769 18.1744 12.2045 17.6827 11.4327 17.3327C10.6609 16.9827 9.84997 16.8077 8.99998 16.8077C8.14997 16.8077 7.34164 16.9827 6.57498 17.3327C5.80831 17.6827 5.13331 18.1744 4.54997 18.8077ZM8.99998 12.6155C8.65254 12.6155 8.35734 12.494 8.11437 12.251C7.87142 12.0081 7.74995 11.7129 7.74995 11.3654C7.74995 11.018 7.87142 10.7228 8.11437 10.4799C8.35734 10.2369 8.65254 10.1154 8.99998 10.1154C9.34741 10.1154 9.64261 10.2369 9.88558 10.4799C10.1285 10.7228 10.25 11.018 10.25 11.3654C10.25 11.7129 10.1285 12.0081 9.88558 12.251C9.64261 12.494 9.34741 12.6155 8.99998 12.6155Z" fill="black"/>
</g>
</svg>
