<svg width="25" height="24" viewBox="0 0 25 24" fill="none" xmlns="http://www.w3.org/2000/svg">
<g id="icons">
<path id="Vector" d="M7.2165 17.45L14.5498 13.9L18.0998 6.56668L10.7665 10.1167L7.2165 17.45ZM12.6665 13C12.3832 13 12.1457 12.9042 11.954 12.7125C11.7623 12.5208 11.6665 12.2833 11.6665 12C11.6665 11.7167 11.7623 11.4792 11.954 11.2875C12.1457 11.0958 12.3832 11 12.6665 11C12.9498 11 13.1873 11.0958 13.379 11.2875C13.5707 11.4792 13.6665 11.7167 13.6665 12C13.6665 12.2833 13.5707 12.5208 13.379 12.7125C13.1873 12.9042 12.9498 13 12.6665 13ZM12.6665 22C11.2943 22 9.99985 21.7375 8.78318 21.2125C7.56651 20.6875 6.5054 19.9722 5.59983 19.0667C4.69428 18.1611 3.979 17.1 3.454 15.8833C2.929 14.6667 2.6665 13.3722 2.6665 12C2.6665 10.6167 2.929 9.31667 3.454 8.1C3.979 6.88333 4.69428 5.825 5.59983 4.925C6.5054 4.025 7.56651 3.3125 8.78318 2.7875C9.99985 2.2625 11.2943 2 12.6665 2C14.0498 2 15.3498 2.2625 16.5665 2.7875C17.7832 3.3125 18.8415 4.025 19.7415 4.925C20.6415 5.825 21.354 6.88333 21.879 8.1C22.404 9.31667 22.6665 10.6167 22.6665 12C22.6665 13.3722 22.404 14.6667 21.879 15.8833C21.354 17.1 20.6415 18.1611 19.7415 19.0667C18.8415 19.9722 17.7832 20.6875 16.5665 21.2125C15.3498 21.7375 14.0498 22 12.6665 22ZM12.6665 20.3334C14.9887 20.3334 16.9582 19.5222 18.5749 17.9C20.1915 16.2778 20.9999 14.3111 20.9999 12C20.9999 9.67778 20.1915 7.70833 18.5749 6.09165C16.9582 4.47498 14.9887 3.66665 12.6665 3.66665C10.3554 3.66665 8.38872 4.47498 6.7665 6.09165C5.14427 7.70833 4.33315 9.67778 4.33315 12C4.33315 14.3111 5.14427 16.2778 6.7665 17.9C8.38872 19.5222 10.3554 20.3334 12.6665 20.3334Z" fill="#AFAFAF"/>
</g>
</svg>
