<svg width="20" height="20" viewBox="0 0 20 20" fill="none" xmlns="http://www.w3.org/2000/svg">
<g id="icons">
<path id="Vector" d="M6.6665 15.0001L9.99984 12.4584L13.3332 15.0001L12.0276 10.889L15.3609 8.52785H11.2915L9.99984 4.26398L8.69428 8.52785H4.62484L7.95817 10.889L6.6665 15.0001ZM9.99984 18.3334C8.85632 18.3334 7.77762 18.1147 6.76373 17.6772C5.74984 17.2397 4.86558 16.6436 4.11094 15.889C3.35632 15.1343 2.76025 14.2501 2.32275 13.2362C1.88525 12.2223 1.6665 11.1436 1.6665 10.0001C1.6665 8.8473 1.88525 7.76397 2.32275 6.75008C2.76025 5.73619 3.35632 4.85425 4.11094 4.10425C4.86558 3.35425 5.74984 2.7605 6.76373 2.323C7.77762 1.8855 8.85632 1.66675 9.99984 1.66675C11.1526 1.66675 12.2359 1.8855 13.2498 2.323C14.2637 2.7605 15.1457 3.35425 15.8957 4.10425C16.6457 4.85425 17.2394 5.73619 17.6769 6.75008C18.1144 7.76397 18.3332 8.8473 18.3332 10.0001C18.3332 11.1436 18.1144 12.2223 17.6769 13.2362C17.2394 14.2501 16.6457 15.1343 15.8957 15.889C15.1457 16.6436 14.2637 17.2397 13.2498 17.6772C12.2359 18.1147 11.1526 18.3334 9.99984 18.3334ZM9.99984 16.9445C11.935 16.9445 13.5762 16.2686 14.9235 14.9167C16.2707 13.5649 16.9443 11.926 16.9443 10.0001C16.9443 8.0649 16.2707 6.42369 14.9235 5.07646C13.5762 3.72923 11.935 3.05562 9.99984 3.05562C8.07391 3.05562 6.43502 3.72923 5.08317 5.07646C3.73131 6.42369 3.05538 8.0649 3.05538 10.0001C3.05538 11.926 3.73131 13.5649 5.08317 14.9167C6.43502 16.2686 8.07391 16.9445 9.99984 16.9445Z" fill="#141414"/>
</g>
</svg>
