<svg width="198" height="137" viewBox="0 0 198 137" fill="none" xmlns="http://www.w3.org/2000/svg">
<path d="M33.2694 104.5L52.8249 60.5H145.175L164.731 104.5H33.2694Z" stroke="#AFAFAF"/>
<path d="M62.1408 104.5L73.1683 60.5H124.832L135.859 104.5H62.1408Z" stroke="#AFAFAF"/>
<path d="M155.612 84H42.354L48.6247 70H149.371L155.612 84Z" stroke="#AFAFAF"/>
<path d="M98.5 104.5V60.5" stroke="#AFAFAF"/>
<ellipse cx="99" cy="79" rx="9" ry="2" fill="#6B6B6B"/>
<path d="M98.5044 56C99.6019 56 100.553 55.6033 101.329 54.8233C102.105 54.0439 102.5 53.0922 102.5 51.9956C102.5 50.8981 102.103 49.9473 101.323 49.1707C100.544 48.3946 99.5922 48 98.4956 48C97.3981 48 96.4473 48.3966 95.6707 49.1767C94.8946 49.9561 94.5 50.9078 94.5 52.0044C94.5 53.1019 94.8967 54.0527 95.6767 54.8293C96.4561 55.6054 97.4078 56 98.5044 56ZM98.5 75.3425C93.316 70.8982 89.4516 66.7821 86.8891 62.9948C84.2726 59.1276 83 55.5997 83 52.4C83 47.5177 84.565 43.6756 87.664 40.8175C90.7917 37.9329 94.3969 36.5 98.5 36.5C102.603 36.5 106.208 37.9329 109.336 40.8175C112.435 43.6756 114 47.5177 114 52.4C114 55.5997 112.727 59.1276 110.111 62.9948C107.548 66.7821 103.684 70.8982 98.5 75.3425Z" fill="#545454" stroke="white"/>
</svg>
