<svg width="25" height="24" viewBox="0 0 25 24" fill="none" xmlns="http://www.w3.org/2000/svg">
<g id="icons">
<path id="Vector" d="M5.98301 17.45C6.96634 16.7445 7.97745 16.1986 9.01633 15.8125C10.0552 15.4264 11.1608 15.2334 12.333 15.2334C13.5052 15.2334 14.6136 15.4264 15.658 15.8125C16.7025 16.1986 17.7164 16.7445 18.6997 17.45C19.383 16.6222 19.8816 15.7583 20.1955 14.8583C20.5094 13.9583 20.6664 13.0056 20.6664 12C20.6664 9.65 19.865 7.67361 18.2622 6.07083C16.6594 4.46804 14.683 3.66665 12.333 3.66665C9.98301 3.66665 8.00662 4.46804 6.40383 6.07083C4.80105 7.67361 3.99966 9.65 3.99966 12C3.99966 13.0056 4.15938 13.9583 4.47883 14.8583C4.79828 15.7583 5.29967 16.6222 5.98301 17.45ZM12.3299 12.8333C11.3598 12.8333 10.5427 12.5004 9.87883 11.8344C9.21495 11.1685 8.88301 10.3504 8.88301 9.38023C8.88301 8.41008 9.21598 7.59306 9.88193 6.92918C10.5479 6.26528 11.366 5.93333 12.3361 5.93333C13.3063 5.93333 14.1233 6.26631 14.7872 6.93228C15.4511 7.59823 15.783 8.41628 15.783 9.38643C15.783 10.3566 15.45 11.1736 14.7841 11.8375C14.1181 12.5014 13.3001 12.8333 12.3299 12.8333ZM12.3408 22C10.9634 22 9.66635 21.7375 8.44968 21.2125C7.23302 20.6875 6.1719 19.9722 5.26633 19.0667C4.36078 18.1611 3.64551 17.1013 3.12051 15.8872C2.59551 14.6732 2.33301 13.3759 2.33301 11.9956C2.33301 10.6152 2.59551 9.31944 3.12051 8.10833C3.64551 6.89723 4.36078 5.83889 5.26633 4.93333C6.1719 4.02778 7.23172 3.3125 8.44578 2.7875C9.65985 2.2625 10.9571 2 12.3374 2C13.7178 2 15.0136 2.2625 16.2247 2.7875C17.4358 3.3125 18.4941 4.02778 19.3997 4.93333C20.3052 5.83889 21.0205 6.89741 21.5455 8.10888C22.0705 9.32034 22.333 10.6148 22.333 11.9922C22.333 13.3696 22.0705 14.6667 21.5455 15.8833C21.0205 17.1 20.3052 18.1611 19.3997 19.0667C18.4941 19.9722 17.4356 20.6875 16.2241 21.2125C15.0127 21.7375 13.7182 22 12.3408 22ZM12.333 20.3334C13.2386 20.3334 14.1136 20.2014 14.958 19.9375C15.8025 19.6736 16.6164 19.2389 17.3997 18.6333C16.6164 18.0722 15.7997 17.6431 14.9497 17.3458C14.0997 17.0486 13.2275 16.9 12.333 16.9C11.4386 16.9 10.5663 17.0486 9.71633 17.3458C8.86633 17.6431 8.04967 18.0722 7.26633 18.6333C8.04967 19.2389 8.86356 19.6736 9.70801 19.9375C10.5525 20.2014 11.4275 20.3334 12.333 20.3334ZM12.333 11.1667C12.8552 11.1667 13.283 11 13.6164 10.6667C13.9497 10.3333 14.1164 9.90556 14.1164 9.38333C14.1164 8.86111 13.9497 8.43333 13.6164 8.1C13.283 7.76667 12.8552 7.6 12.333 7.6C11.8108 7.6 11.383 7.76667 11.0497 8.1C10.7163 8.43333 10.5497 8.86111 10.5497 9.38333C10.5497 9.90556 10.7163 10.3333 11.0497 10.6667C11.383 11 11.8108 11.1667 12.333 11.1667Z" fill="#AFAFAF"/>
</g>
</svg>
