<svg width="24" height="24" viewBox="0 0 24 24" fill="none" xmlns="http://www.w3.org/2000/svg">
<g id="leadingIcon" clip-path="url(#clip0_2133_1629)">
<path id="Vector" d="M11.85 11.8499C12.2833 11.3166 12.6042 10.7666 12.8125 10.1999C13.0208 9.63323 13.125 8.9749 13.125 8.2249C13.125 7.4749 13.0208 6.81657 12.8125 6.2499C12.6042 5.68323 12.2833 5.13323 11.85 4.5999C13.1167 4.31657 14.2292 4.50823 15.1875 5.1749C16.1458 5.84157 16.625 6.85823 16.625 8.2249C16.625 9.59157 16.1458 10.6082 15.1875 11.2749C14.2292 11.9416 13.1167 12.1332 11.85 11.8499ZM17.25 19.9999V17.6499C17.25 16.7999 17.0333 16.0082 16.6 15.2749C16.1667 14.5416 15.4167 13.9249 14.35 13.4249C17.2333 13.7916 19.2042 14.3249 20.2625 15.0249C21.3208 15.7249 21.85 16.5999 21.85 17.6499V19.9999H17.25ZM20 12.7749V10.2749H17.5V8.7749H20V6.2749H21.5V8.7749H24V10.2749H21.5V12.7749H20ZM7.875 11.9749C6.775 11.9749 5.875 11.6249 5.175 10.9249C4.475 10.2249 4.125 9.3249 4.125 8.2249C4.125 7.1249 4.475 6.2249 5.175 5.5249C5.875 4.8249 6.775 4.4749 7.875 4.4749C8.975 4.4749 9.875 4.8249 10.575 5.5249C11.275 6.2249 11.625 7.1249 11.625 8.2249C11.625 9.3249 11.275 10.2249 10.575 10.9249C9.875 11.6249 8.975 11.9749 7.875 11.9749ZM0 19.9999V17.6499C0 17.0666 0.154167 16.5374 0.4625 16.0624C0.770833 15.5874 1.18333 15.2332 1.7 14.9999C2.9 14.4666 3.97083 14.0832 4.9125 13.8499C5.85417 13.6166 6.84167 13.4999 7.875 13.4999C8.90833 13.4999 9.89167 13.6166 10.825 13.8499C11.7583 14.0832 12.825 14.4666 14.025 14.9999C14.5417 15.2332 14.9583 15.5874 15.275 16.0624C15.5917 16.5374 15.75 17.0666 15.75 17.6499V19.9999H0ZM7.875 10.4749C8.525 10.4749 9.0625 10.2624 9.4875 9.8374C9.9125 9.4124 10.125 8.8749 10.125 8.2249C10.125 7.5749 9.9125 7.0374 9.4875 6.6124C9.0625 6.1874 8.525 5.9749 7.875 5.9749C7.225 5.9749 6.6875 6.1874 6.2625 6.6124C5.8375 7.0374 5.625 7.5749 5.625 8.2249C5.625 8.8749 5.8375 9.4124 6.2625 9.8374C6.6875 10.2624 7.225 10.4749 7.875 10.4749ZM1.5 18.4999H14.25V17.6499C14.25 17.3832 14.1833 17.1332 14.05 16.8999C13.9167 16.6666 13.7083 16.4832 13.425 16.3499C12.275 15.8166 11.3 15.4582 10.5 15.2749C9.7 15.0916 8.825 14.9999 7.875 14.9999C6.925 14.9999 6.05417 15.0916 5.2625 15.2749C4.47083 15.4582 3.48333 15.8166 2.3 16.3499C2.05 16.4666 1.85417 16.6457 1.7125 16.8874C1.57083 17.1291 1.5 17.3832 1.5 17.6499V18.4999Z" fill="#141414"/>
</g>
<defs>
<clipPath id="clip0_2133_1629">
<rect width="24" height="24" fill="white"/>
</clipPath>
</defs>
</svg>
